{"title":"Fluerne paa vaeggen (2005) .avi FrHDgY","uid":11720907,"size":1566055999,"categoryP":"video","categoryS":"movies","magnet":"?xt=urn:btih:d829691f18df4401191432c277c4beee17f31745&amp;dn=Fluerne+paa+vaeggen+%282005%29+.avi+FrHDgY&amp;tr=udp%3A%2F%2Ftracker.openbittorrent.com%3A80&amp;tr=udp%3A%2F%2Fopen.demonii.com%3A1337&amp;tr=udp%3A%2F%2Ftracker.coppersurfer.tk%3A6969&amp;tr=udp%3A%2F%2Fexodus.desync.com%3A6969","seeders":1,"leechers":0,"uploader":"Frankenhedgie","files":2,"time":1424810044,"description":"Name: Fluerne paa vaeggen (Flies On The Wall)\nYear: 2005\nCountry:  Denmark\nLanguage: Danish (English subtitles)\nStarring:  Trine Dyrholm, Lars Brygmann, Kurt Ravn.  Directed by Aake Sandgren.\nIMdB: http://www.imdb.com/title/tt0428546/\n\nPlot:  My Larsen is an assertive, self-centred filmmaker who accepts an offer from her ex-partner, a political spin doctor, to make a documentary featuring one of his party's model local councils.  She becomes involved both personally and professionally, uncovering a terrible secret about the town, and arousing guardians who will use any means, even murder, to keep it.\n\nGeneral\nFormat                           : AVI\nFormat/Info                      : Audio Video Interleave\nFile size                        : 1.46 GiB\nDuration                         : 1h 32mn\nOverall bit rate                 : 2 268 Kbps\nWriting application              : VirtualDubMod 1.5.4.1 (build 2178/release)\nWriting library                  : VirtualDubMod build 2178/release\n\nVideo\nID                               : 0\nFormat                           : MPEG-4 Visual\nFormat profile                   : Advanced Simple@L5\nFormat settings, BVOP            : 1\nFormat settings, QPel            : No\nFormat settings, GMC             : No warppoints\nFormat settings, Matrix          : Custom\nCodec ID                         : XVID\nCodec ID/Hint                    : XviD\nDuration                         : 1h 32mn\nBit rate                         : 1 813 Kbps\nWidth                            : 720 pixels\nHeight                           : 384 pixels\nDisplay aspect ratio             : 1.875\nFrame rate                       : 25.000 fps\nColor space                      : YUV\nChroma subsampling               : 4:2:0\nBit depth                        : 8 bits\nScan type                        : Progressive\nCompression mode                 : Lossy\nBits/(Pixel*Frame)               : 0.262\nStream size                      : 1.17 GiB (80%)\nWriting library                  : XviD 1.2.1 (UTC 2008-12-04)\n\nAudio\nID                               : 1\nFormat                           : AC-3\nFormat/Info                      : Audio Coding 3\nMode extension                   : CM (complete main)\nCodec ID                         : 2000\nDuration                         : 1h 32mn\nBit rate mode                    : Constant\nBit rate                         : 448 Kbps\nChannel(s)                       : 6 channels\nChannel positions                : Front: L C R, Side: L R, LFE\nSampling rate                    : 48.0 KHz\nBit depth                        : 16 bits\nCompression mode                 : Lossy\nStream size                      : 295 MiB (20%)\nAlignment                        : Split across interleaves\nInterleave, duration             : 96 ms (2.40 video frames)\nInterleave, preload duration     : 96 ms\nLanguage                         : Danish\nSubtitle (.srt)                  :English","torrent":{"xt":"urn:btih:d829691f18df4401191432c277c4beee17f31745","amp;dn":"Fluerne+paa+vaeggen+%282005%29+.avi+FrHDgY","amp;tr":["udp%3A%2F%2Ftracker.openbittorrent.com%3A80","udp%3A%2F%2Fopen.demonii.com%3A1337","udp%3A%2F%2Ftracker.coppersurfer.tk%3A6969","udp%3A%2F%2Fexodus.desync.com%3A6969"],"infoHash":"d829691f18df4401191432c277c4beee17f31745","infoHashBuffer":{"type":"Buffer","data":[216,41,105,31,24,223,68,1,25,20,50,194,119,196,190,238,23,243,23,69]},"announce":[],"urlList":[]}}